ply
format ascii 1.0
comment Created by Blender 2.62 (sub 0) - www.blender.org, source file: ''
element vertex 240
property float x
property float y
property float z
property float nx
property float ny
property float nz
element face 80
property list uchar uint vertex_indices
end_header
0.440335 -1.501962 -1.413908 -0.038547 -0.748789 -0.661687
-0.098919 -1.543591 -1.335385 -0.038547 -0.748789 -0.661687
0.015010 -1.192946 -1.738824 -0.038547 -0.748789 -0.661687
0.015010 -1.192946 -1.738824 0.187594 -0.577345 -0.794658
0.602789 -1.001962 -1.738824 0.187594 -0.577345 -0.794658
0.440335 -1.501962 -1.413908 0.187594 -0.577345 -0.794658
0.901066 -1.218671 -1.335385 0.471317 -0.583121 -0.661687
0.440335 -1.501962 -1.413908 0.471317 -0.583121 -0.661687
0.602789 -1.001962 -1.738824 0.471317 -0.583121 -0.661687
0.015010 -1.192946 -1.738824 0.102381 -0.315090 -0.943523
0.177466 -0.692951 -1.888170 0.102381 -0.315090 -0.943523
0.602789 -1.001962 -1.738824 0.102381 -0.315090 -0.943523
1.028114 -0.692951 -1.413906 0.700228 -0.268049 -0.661687
0.901066 -1.218671 -1.335385 0.700228 -0.268049 -0.661687
0.602789 -1.001962 -1.738824 0.700228 -0.268049 -0.661687
0.602789 -1.001962 -1.738824 0.607061 0.000000 -0.794655
0.602789 -0.383939 -1.738824 0.607061 0.000000 -0.794655
1.028114 -0.692951 -1.413906 0.607061 0.000000 -0.794655
0.901066 -0.167231 -1.335385 0.700228 0.268049 -0.661687
1.028114 -0.692951 -1.413906 0.700228 0.268049 -0.661687
0.602789 -0.383939 -1.738824 0.700228 0.268049 -0.661687
0.602789 -1.001962 -1.738824 0.331305 0.000000 -0.943524
0.177466 -0.692951 -1.888170 0.331305 0.000000 -0.943524
0.602789 -0.383939 -1.738824 0.331305 0.000000 -0.943524
-0.510723 -1.192948 -1.413906 -0.724044 -0.194735 -0.661694
-0.716959 -0.692951 -1.335385 -0.724044 -0.194735 -0.661694
-0.348264 -0.692951 -1.738822 -0.724044 -0.194735 -0.661694
-0.348264 -0.692951 -1.738822 -0.491120 -0.356821 -0.794657
0.015010 -1.192946 -1.738824 -0.491120 -0.356821 -0.794657
-0.510723 -1.192948 -1.413906 -0.491120 -0.356821 -0.794657
-0.098919 -1.543591 -1.335385 -0.408939 -0.628443 -0.661686
-0.510723 -1.192948 -1.413906 -0.408939 -0.628443 -0.661686
0.015010 -1.192946 -1.738824 -0.408939 -0.628443 -0.661686
-0.348264 -0.692951 -1.738822 -0.268034 -0.194736 -0.943523
0.177466 -0.692951 -1.888170 -0.268034 -0.194736 -0.943523
0.015010 -1.192946 -1.738824 -0.268034 -0.194736 -0.943523
-0.510723 -0.192954 -1.413906 -0.408939 0.628443 -0.661686
-0.098919 0.157689 -1.335385 -0.408939 0.628443 -0.661686
0.015010 -0.192955 -1.738824 -0.408939 0.628443 -0.661686
0.015010 -0.192955 -1.738824 -0.491120 0.356821 -0.794657
-0.348264 -0.692951 -1.738822 -0.491120 0.356821 -0.794657
-0.510723 -0.192954 -1.413906 -0.491120 0.356821 -0.794657
-0.716959 -0.692951 -1.335385 -0.724044 0.194735 -0.661694
-0.510723 -0.192954 -1.413906 -0.724044 0.194735 -0.661694
-0.348264 -0.692951 -1.738822 -0.724044 0.194735 -0.661694
0.015010 -0.192955 -1.738824 -0.268034 0.194736 -0.943523
0.177466 -0.692951 -1.888170 -0.268034 0.194736 -0.943523
-0.348264 -0.692951 -1.738822 -0.268034 0.194736 -0.943523
0.440335 0.116061 -1.413908 0.471317 0.583121 -0.661687
0.901066 -0.167231 -1.335385 0.471317 0.583121 -0.661687
0.602789 -0.383939 -1.738824 0.471317 0.583121 -0.661687
0.602789 -0.383939 -1.738824 0.187594 0.577345 -0.794658
0.015010 -0.192955 -1.738824 0.187594 0.577345 -0.794658
0.440335 0.116061 -1.413908 0.187594 0.577345 -0.794658
-0.098919 0.157689 -1.335385 -0.038547 0.748789 -0.661687
0.440335 0.116061 -1.413908 -0.038547 0.748789 -0.661687
0.015010 -0.192955 -1.738824 -0.038547 0.748789 -0.661687
0.602789 -0.383939 -1.738824 0.102381 0.315090 -0.943523
0.177466 -0.692951 -1.888170 0.102381 0.315090 -0.943523
0.015010 -0.192955 -1.738824 0.102381 0.315090 -0.943523
1.128524 -1.001963 -0.888170 0.904981 -0.268049 -0.330393
0.901066 -1.218671 -1.335385 0.904981 -0.268049 -0.330393
1.028114 -0.692951 -1.413906 0.904981 -0.268049 -0.330393
1.028114 -0.692951 -1.413906 0.982246 0.000000 -0.187599
1.128524 -0.383938 -0.888170 0.982246 0.000000 -0.187599
1.128524 -1.001963 -0.888170 0.982246 0.000000 -0.187599
1.071891 -0.692951 -0.440955 0.992077 0.000000 0.125631
1.128524 -1.001963 -0.888170 0.992077 0.000000 0.125631
1.128524 -0.383938 -0.888170 0.992077 0.000000 0.125631
1.128524 -0.383938 -0.888170 0.904981 0.268049 -0.330393
1.028114 -0.692951 -1.413906 0.904981 0.268049 -0.330393
0.901066 -0.167231 -1.335385 0.904981 0.268049 -0.330393
0.177466 -1.692950 -0.888170 0.024726 -0.943519 -0.330395
-0.098919 -1.543591 -1.335385 0.024726 -0.943519 -0.330395
0.440335 -1.501962 -1.413908 0.024726 -0.943519 -0.330395
0.440335 -1.501962 -1.413908 0.303531 -0.934171 -0.187597
0.765252 -1.501967 -0.888170 0.303531 -0.934171 -0.187597
0.177466 -1.692950 -0.888170 0.303531 -0.934171 -0.187597
0.453851 -1.543591 -0.440955 0.306568 -0.943519 0.125651
0.177466 -1.692950 -0.888170 0.306568 -0.943519 0.125651
0.765252 -1.501967 -0.888170 0.306568 -0.943519 0.125651
0.765252 -1.501967 -0.888170 0.534590 -0.777851 -0.330395
0.440335 -1.501962 -1.413908 0.534590 -0.777851 -0.330395
0.901066 -1.218671 -1.335385 0.534590 -0.777851 -0.330395
-0.773592 -1.001963 -0.888170 -0.889698 -0.315092 -0.330386
-0.716959 -0.692951 -1.335385 -0.889698 -0.315092 -0.330386
-0.510723 -1.192948 -1.413906 -0.889698 -0.315092 -0.330386
-0.510723 -1.192948 -1.413906 -0.794656 -0.577348 -0.187595
-0.410320 -1.501967 -0.888170 -0.794656 -0.577348 -0.187595
-0.773592 -1.001963 -0.888170 -0.794656 -0.577348 -0.187595
-0.546134 -1.218671 -0.440955 -0.802607 -0.583125 0.125648
-0.773592 -1.001963 -0.888170 -0.802607 -0.583125 0.125648
-0.410320 -1.501967 -0.888170 -0.802607 -0.583125 0.125648
-0.410320 -1.501967 -0.888170 -0.574584 -0.748793 -0.330397
-0.510723 -1.192948 -1.413906 -0.574584 -0.748793 -0.330397
-0.098919 -1.543591 -1.335385 -0.574584 -0.748793 -0.330397
-0.410320 0.116066 -0.888170 -0.574584 0.748793 -0.330397
-0.098919 0.157689 -1.335385 -0.574584 0.748793 -0.330397
-0.510723 -0.192954 -1.413906 -0.574584 0.748793 -0.330397
-0.510723 -0.192954 -1.413906 -0.794656 0.577348 -0.187595
-0.773592 -0.383938 -0.888170 -0.794656 0.577348 -0.187595
-0.410320 0.116066 -0.888170 -0.794656 0.577348 -0.187595
-0.546134 -0.167231 -0.440955 -0.802607 0.583125 0.125648
-0.410320 0.116066 -0.888170 -0.802607 0.583125 0.125648
-0.773592 -0.383938 -0.888170 -0.802607 0.583125 0.125648
-0.773592 -0.383938 -0.888170 -0.889698 0.315092 -0.330386
-0.510723 -0.192954 -1.413906 -0.889698 0.315092 -0.330386
-0.716959 -0.692951 -1.335385 -0.889698 0.315092 -0.330386
0.765252 0.116066 -0.888170 0.534590 0.777851 -0.330395
0.901066 -0.167231 -1.335385 0.534590 0.777851 -0.330395
0.440335 0.116061 -1.413908 0.534590 0.777851 -0.330395
0.440335 0.116061 -1.413908 0.303531 0.934171 -0.187597
0.177466 0.307049 -0.888170 0.303531 0.934171 -0.187597
0.765252 0.116066 -0.888170 0.303531 0.934171 -0.187597
0.453851 0.157689 -0.440955 0.306568 0.943519 0.125651
0.765252 0.116066 -0.888170 0.306568 0.943519 0.125651
0.177466 0.307049 -0.888170 0.306568 0.943519 0.125651
0.177466 0.307049 -0.888170 0.024726 0.943519 -0.330395
0.440335 0.116061 -1.413908 0.024726 0.943519 -0.330395
-0.098919 0.157689 -1.335385 0.024726 0.943519 -0.330395
0.865655 -1.192948 -0.362434 0.574584 -0.748793 0.330397
0.453851 -1.543591 -0.440955 0.574584 -0.748793 0.330397
0.765252 -1.501967 -0.888170 0.574584 -0.748793 0.330397
0.765252 -1.501967 -0.888170 0.794656 -0.577348 0.187595
1.128524 -1.001963 -0.888170 0.794656 -0.577348 0.187595
0.865655 -1.192948 -0.362434 0.794656 -0.577348 0.187595
1.071891 -0.692951 -0.440955 0.889698 -0.315092 0.330386
0.865655 -1.192948 -0.362434 0.889698 -0.315092 0.330386
1.128524 -1.001963 -0.888170 0.889698 -0.315092 0.330386
1.128524 -1.001963 -0.888170 0.802607 -0.583125 -0.125648
0.765252 -1.501967 -0.888170 0.802607 -0.583125 -0.125648
0.901066 -1.218671 -1.335385 0.802607 -0.583125 -0.125648
-0.085403 -1.501962 -0.362432 -0.534590 -0.777851 0.330395
-0.546134 -1.218671 -0.440955 -0.534590 -0.777851 0.330395
-0.410320 -1.501967 -0.888170 -0.534590 -0.777851 0.330395
-0.410320 -1.501967 -0.888170 -0.303531 -0.934171 0.187597
0.177466 -1.692950 -0.888170 -0.303531 -0.934171 0.187597
-0.085403 -1.501962 -0.362432 -0.303531 -0.934171 0.187597
0.453851 -1.543591 -0.440955 -0.024726 -0.943519 0.330395
-0.085403 -1.501962 -0.362432 -0.024726 -0.943519 0.330395
0.177466 -1.692950 -0.888170 -0.024726 -0.943519 0.330395
0.177466 -1.692950 -0.888170 -0.306568 -0.943519 -0.125651
-0.410320 -1.501967 -0.888170 -0.306568 -0.943519 -0.125651
-0.098919 -1.543591 -1.335385 -0.306568 -0.943519 -0.125651
-0.673182 -0.692951 -0.362434 -0.904981 0.268049 0.330393
-0.546134 -0.167231 -0.440955 -0.904981 0.268049 0.330393
-0.773592 -0.383938 -0.888170 -0.904981 0.268049 0.330393
-0.773592 -0.383938 -0.888170 -0.982246 0.000000 0.187599
-0.773592 -1.001963 -0.888170 -0.982246 0.000000 0.187599
-0.673182 -0.692951 -0.362434 -0.982246 0.000000 0.187599
-0.546134 -1.218671 -0.440955 -0.904981 -0.268049 0.330393
-0.673182 -0.692951 -0.362434 -0.904981 -0.268049 0.330393
-0.773592 -1.001963 -0.888170 -0.904981 -0.268049 0.330393
-0.773592 -1.001963 -0.888170 -0.992077 -0.000000 -0.125631
-0.773592 -0.383938 -0.888170 -0.992077 -0.000000 -0.125631
-0.716959 -0.692951 -1.335385 -0.992077 -0.000000 -0.125631
-0.085403 0.116061 -0.362432 -0.024726 0.943519 0.330395
0.453851 0.157689 -0.440955 -0.024726 0.943519 0.330395
0.177466 0.307049 -0.888170 -0.024726 0.943519 0.330395
0.177466 0.307049 -0.888170 -0.303531 0.934171 0.187597
-0.410320 0.116066 -0.888170 -0.303531 0.934171 0.187597
-0.085403 0.116061 -0.362432 -0.303531 0.934171 0.187597
-0.546134 -0.167231 -0.440955 -0.534590 0.777851 0.330395
-0.085403 0.116061 -0.362432 -0.534590 0.777851 0.330395
-0.410320 0.116066 -0.888170 -0.534590 0.777851 0.330395
-0.410320 0.116066 -0.888170 -0.306568 0.943519 -0.125651
0.177466 0.307049 -0.888170 -0.306568 0.943519 -0.125651
-0.098919 0.157689 -1.335385 -0.306568 0.943519 -0.125651
0.865655 -0.192954 -0.362434 0.889698 0.315092 0.330386
1.071891 -0.692951 -0.440955 0.889698 0.315092 0.330386
1.128524 -0.383938 -0.888170 0.889698 0.315092 0.330386
1.128524 -0.383938 -0.888170 0.794656 0.577348 0.187595
0.765252 0.116066 -0.888170 0.794656 0.577348 0.187595
0.865655 -0.192954 -0.362434 0.794656 0.577348 0.187595
0.453851 0.157689 -0.440955 0.574584 0.748793 0.330397
0.865655 -0.192954 -0.362434 0.574584 0.748793 0.330397
0.765252 0.116066 -0.888170 0.574584 0.748793 0.330397
0.765252 0.116066 -0.888170 0.802607 0.583125 -0.125648
1.128524 -0.383938 -0.888170 0.802607 0.583125 -0.125648
0.901066 -0.167231 -1.335385 0.802607 0.583125 -0.125648
0.339922 -1.192946 -0.037516 0.408939 -0.628443 0.661686
0.453851 -1.543591 -0.440955 0.408939 -0.628443 0.661686
0.865655 -1.192948 -0.362434 0.408939 -0.628443 0.661686
0.865655 -1.192948 -0.362434 0.491119 -0.356821 0.794658
0.703196 -0.692951 -0.037518 0.491119 -0.356821 0.794658
0.339922 -1.192946 -0.037516 0.491119 -0.356821 0.794658
0.177466 -0.692951 0.111830 0.268034 -0.194737 0.943523
0.339922 -1.192946 -0.037516 0.268034 -0.194737 0.943523
0.703196 -0.692951 -0.037518 0.268034 -0.194737 0.943523
0.703196 -0.692951 -0.037518 0.724044 -0.194734 0.661694
0.865655 -1.192948 -0.362434 0.724044 -0.194734 0.661694
1.071891 -0.692951 -0.440955 0.724044 -0.194734 0.661694
-0.247857 -1.001962 -0.037516 -0.471317 -0.583121 0.661687
-0.546134 -1.218671 -0.440955 -0.471317 -0.583121 0.661687
-0.085403 -1.501962 -0.362432 -0.471317 -0.583121 0.661687
-0.085403 -1.501962 -0.362432 -0.187594 -0.577345 0.794658
0.339922 -1.192946 -0.037516 -0.187594 -0.577345 0.794658
-0.247857 -1.001962 -0.037516 -0.187594 -0.577345 0.794658
0.177466 -0.692951 0.111830 -0.102381 -0.315090 0.943523
-0.247857 -1.001962 -0.037516 -0.102381 -0.315090 0.943523
0.339922 -1.192946 -0.037516 -0.102381 -0.315090 0.943523
0.339922 -1.192946 -0.037516 0.038547 -0.748789 0.661687
-0.085403 -1.501962 -0.362432 0.038547 -0.748789 0.661687
0.453851 -1.543591 -0.440955 0.038547 -0.748789 0.661687
-0.247857 -0.383939 -0.037516 -0.700228 0.268049 0.661688
-0.546134 -0.167231 -0.440955 -0.700228 0.268049 0.661688
-0.673182 -0.692951 -0.362434 -0.700228 0.268049 0.661688
-0.673182 -0.692951 -0.362434 -0.607060 0.000000 0.794656
-0.247857 -1.001962 -0.037516 -0.607060 0.000000 0.794656
-0.247857 -0.383939 -0.037516 -0.607060 0.000000 0.794656
0.177466 -0.692951 0.111830 -0.331305 0.000000 0.943524
-0.247857 -0.383939 -0.037516 -0.331305 0.000000 0.943524
-0.247857 -1.001962 -0.037516 -0.331305 0.000000 0.943524
-0.247857 -1.001962 -0.037516 -0.700228 -0.268049 0.661688
-0.673182 -0.692951 -0.362434 -0.700228 -0.268049 0.661688
-0.546134 -1.218671 -0.440955 -0.700228 -0.268049 0.661688
0.339922 -0.192955 -0.037516 0.038547 0.748789 0.661687
0.453851 0.157689 -0.440955 0.038547 0.748789 0.661687
-0.085403 0.116061 -0.362432 0.038547 0.748789 0.661687
-0.085403 0.116061 -0.362432 -0.187594 0.577345 0.794658
-0.247857 -0.383939 -0.037516 -0.187594 0.577345 0.794658
0.339922 -0.192955 -0.037516 -0.187594 0.577345 0.794658
0.177466 -0.692951 0.111830 -0.102381 0.315090 0.943523
0.339922 -0.192955 -0.037516 -0.102381 0.315090 0.943523
-0.247857 -0.383939 -0.037516 -0.102381 0.315090 0.943523
-0.247857 -0.383939 -0.037516 -0.471318 0.583121 0.661687
-0.085403 0.116061 -0.362432 -0.471318 0.583121 0.661687
-0.546134 -0.167231 -0.440955 -0.471318 0.583121 0.661687
0.703196 -0.692951 -0.037518 0.724044 0.194734 0.661694
1.071891 -0.692951 -0.440955 0.724044 0.194734 0.661694
0.865655 -0.192954 -0.362434 0.724044 0.194734 0.661694
0.865655 -0.192954 -0.362434 0.491119 0.356821 0.794658
0.339922 -0.192955 -0.037516 0.491119 0.356821 0.794658
0.703196 -0.692951 -0.037518 0.491119 0.356821 0.794658
0.177466 -0.692951 0.111830 0.268034 0.194737 0.943523
0.703196 -0.692951 -0.037518 0.268034 0.194737 0.943523
0.339922 -0.192955 -0.037516 0.268034 0.194737 0.943523
0.339922 -0.192955 -0.037516 0.408939 0.628443 0.661686
0.865655 -0.192954 -0.362434 0.408939 0.628443 0.661686
0.453851 0.157689 -0.440955 0.408939 0.628443 0.661686
3 0 1 2
3 3 4 5
3 6 7 8
3 9 10 11
3 12 13 14
3 15 16 17
3 18 19 20
3 21 22 23
3 24 25 26
3 27 28 29
3 30 31 32
3 33 34 35
3 36 37 38
3 39 40 41
3 42 43 44
3 45 46 47
3 48 49 50
3 51 52 53
3 54 55 56
3 57 58 59
3 60 61 62
3 63 64 65
3 66 67 68
3 69 70 71
3 72 73 74
3 75 76 77
3 78 79 80
3 81 82 83
3 84 85 86
3 87 88 89
3 90 91 92
3 93 94 95
3 96 97 98
3 99 100 101
3 102 103 104
3 105 106 107
3 108 109 110
3 111 112 113
3 114 115 116
3 117 118 119
3 120 121 122
3 123 124 125
3 126 127 128
3 129 130 131
3 132 133 134
3 135 136 137
3 138 139 140
3 141 142 143
3 144 145 146
3 147 148 149
3 150 151 152
3 153 154 155
3 156 157 158
3 159 160 161
3 162 163 164
3 165 166 167
3 168 169 170
3 171 172 173
3 174 175 176
3 177 178 179
3 180 181 182
3 183 184 185
3 186 187 188
3 189 190 191
3 192 193 194
3 195 196 197
3 198 199 200
3 201 202 203
3 204 205 206
3 207 208 209
3 210 211 212
3 213 214 215
3 216 217 218
3 219 220 221
3 222 223 224
3 225 226 227
3 228 229 230
3 231 232 233
3 234 235 236
3 237 238 239
